<?xml version="1.0" standalone="no"?>
<!DOCTYPE svg PUBLIC "-//W3C//DTD SVG 20010904//EN"
 "http://www.w3.org/TR/2001/REC-SVG-20010904/DTD/svg10.dtd">
<svg version="1.0" xmlns="http://www.w3.org/2000/svg"
 width="1920.000000pt" height="1484.000000pt" viewBox="0 0 1920.000000 1484.000000"
 preserveAspectRatio="xMidYMid meet">

<g transform="translate(0.000000,1484.000000) scale(0.100000,-0.100000)"
fill="#000000" stroke="none">
<path d="M12086 10949 c-72 -17 -198 -91 -270 -159 -113 -107 -206 -237 -462
-647 -151 -242 -249 -393 -307 -473 -26 -35 -47 -68 -47 -72 0 -4 18 -8 39 -8
39 0 40 0 129 133 49 72 169 259 266 415 312 500 412 621 582 708 74 37 82 39
168 38 78 0 98 -4 142 -27 82 -43 137 -115 150 -196 l7 -41 -44 6 c-37 5 -47
3 -64 -16 -18 -20 -18 -24 -4 -48 11 -21 26 -29 64 -36 28 -5 51 -10 53 -12 6
-4 -71 -194 -78 -194 -4 0 -10 22 -14 50 -7 53 -26 80 -56 80 -26 0 -50 -27
-50 -55 0 -41 30 -169 45 -192 8 -12 15 -27 15 -33 0 -19 -132 -320 -140 -320
-4 0 -13 7 -20 15 -19 23 -57 18 -75 -9 -21 -31 -10 -72 24 -94 14 -9 27 -17
29 -18 2 -1 -43 -109 -99 -240 -272 -637 -293 -705 -409 -1289 -120 -606 -314
-1393 -422 -1710 -151 -443 -292 -652 -465 -690 -67 -14 -180 35 -270 118 -92
85 -160 200 -211 357 -82 255 -120 493 -156 986 -7 99 -16 186 -20 192 -4 7
-21 12 -37 12 -30 0 -30 0 -24 -47 3 -27 12 -145 20 -263 32 -453 91 -764 189
-1006 44 -108 95 -184 181 -269 115 -116 155 -130 570 -214 612 -122 1151
-215 1400 -240 479 -50 1163 -50 1694 -1 1096 102 2017 399 2780 898 182 118
588 418 660 486 124 118 131 230 25 392 -73 112 -442 462 -754 716 -52 43
-300 241 -550 440 -251 200 -561 452 -690 560 -129 108 -298 250 -376 315
-503 421 -1023 776 -1599 1090 -199 109 -776 397 -955 478 -275 124 -440 163
-564 134z m929 -388 c415 -204 639 -325 920 -494 465 -280 864 -568 1300 -937
431 -365 731 -610 1220 -995 105 -82 199 -157 210 -166 11 -10 79 -65 150
-125 284 -234 558 -489 659 -613 63 -76 106 -161 106 -208 0 -84 -39 -126
-315 -332 -271 -203 -378 -277 -551 -383 -998 -610 -2331 -895 -3864 -827
-416 18 -668 51 -1285 165 -253 47 -647 124 -664 130 -9 3 0 14 25 33 109 79
202 219 298 448 134 320 348 1150 521 2018 102 512 141 627 447 1335 303 700
361 846 366 931 5 75 -9 151 -37 209 -10 21 -17 41 -14 44 8 8 142 -53 508
-233z"/>
<path d="M12795 10466 c-13 -19 -14 -29 -6 -45 15 -28 134 -111 159 -111 38 0
65 46 44 75 -16 23 -142 105 -161 105 -11 0 -28 -11 -36 -24z"/>
<path d="M12777 10252 c-10 -10 -17 -25 -17 -34 0 -21 33 -48 59 -48 12 0 45
-10 73 -22 64 -27 102 -18 106 28 4 36 -5 44 -81 72 -72 27 -118 28 -140 4z"/>
<path d="M13268 10220 c-21 -13 -24 -63 -5 -77 19 -16 150 -63 173 -63 28 0
46 23 42 52 -2 17 -20 31 -68 55 -75 38 -118 48 -142 33z"/>
<path d="M16406 7844 c-9 -8 -16 -24 -16 -35 0 -23 165 -206 193 -215 23 -7
57 22 57 49 0 17 -88 134 -123 162 -74 61 -86 65 -111 39z"/>
<path d="M16748 7579 c-32 -18 -21 -61 30 -124 55 -68 86 -89 114 -74 47 25
35 66 -41 147 -61 63 -73 69 -103 51z"/>
<path d="M16665 7310 c-31 -34 -13 -63 61 -98 54 -25 71 -29 90 -20 25 11 33
31 26 62 -5 18 -112 76 -143 76 -9 0 -24 -9 -34 -20z"/>
<path d="M17060 7240 c-11 -11 -20 -29 -20 -39 0 -26 46 -61 80 -61 59 0 66
60 11 97 -41 28 -46 28 -71 3z"/>
<path d="M6955 10913 c-142 -30 -411 -150 -960 -428 -826 -419 -1359 -776
-2120 -1420 -369 -312 -640 -533 -1145 -930 -537 -423 -936 -786 -1044 -949
-78 -117 -94 -213 -51 -296 25 -49 101 -126 175 -179 36 -25 137 -100 225
-166 497 -374 957 -616 1540 -813 782 -264 1726 -386 2715 -352 453 15 619 32
1035 101 455 76 1227 228 1303 257 180 69 325 245 407 497 82 252 125 527 160
1014 21 293 22 271 -20 271 -32 0 -35 -2 -35 -30 0 -17 -7 -126 -15 -243 -35
-491 -73 -729 -157 -987 -53 -164 -119 -273 -215 -359 -311 -278 -549 -48
-786 760 -30 101 -86 309 -123 461 -62 249 -71 277 -89 277 -54 -1 -54 -5 -24
-129 163 -653 249 -927 364 -1166 70 -144 158 -266 231 -317 38 -27 42 -33 27
-39 -77 -32 -1167 -226 -1473 -262 -365 -43 -1127 -54 -1540 -22 -1336 103
-2354 452 -3216 1103 -67 50 -164 122 -215 158 -250 179 -278 256 -157 432
101 148 536 542 1008 913 483 379 1046 838 1300 1060 152 132 509 409 705 545
448 312 777 504 1375 804 374 187 608 296 616 288 2 -2 -5 -21 -15 -43 -30
-63 -44 -141 -38 -213 5 -72 32 -146 185 -506 201 -475 205 -485 229 -485 53
0 54 7 16 93 -19 45 -37 87 -39 92 -2 6 9 18 26 27 37 21 48 60 26 93 -19 29
-51 32 -78 8 -10 -9 -20 -14 -23 -11 -3 3 -35 76 -71 163 -65 154 -66 159 -50
185 19 32 46 142 46 187 0 53 -49 82 -83 49 -8 -8 -17 -37 -21 -65 -4 -28 -10
-51 -14 -51 -8 0 -69 153 -74 185 -2 15 2 19 19 17 32 -4 90 23 98 47 3 11 1
30 -5 42 -11 19 -18 21 -65 16 l-53 -5 15 50 c27 92 70 145 153 188 37 20 61
24 135 24 83 1 95 -2 165 -35 175 -84 273 -204 625 -769 232 -371 254 -403
280 -396 11 3 28 6 38 6 13 0 2 23 -51 103 -38 56 -138 212 -222 347 -335 537
-447 675 -619 761 -126 62 -199 72 -336 42z"/>
<path d="M12187 10772 c-22 -24 -21 -38 3 -62 28 -28 129 -29 153 -2 21 23 22
46 1 66 -23 24 -135 22 -157 -2z"/>
<path d="M6979 10762 c-47 -2 -58 -7 -69 -27 -11 -20 -10 -28 4 -50 15 -22 23
-25 76 -25 47 0 64 4 80 20 23 23 25 40 8 62 -17 20 -33 24 -99 20z"/>
<path d="M12038 10646 c-164 -59 -370 -299 -633 -741 -59 -99 -127 -213 -151
-254 -24 -41 -43 -75 -42 -77 2 -1 104 -10 228 -19 315 -22 334 -25 338 -51 6
-43 -147 -570 -333 -1149 -135 -419 -169 -528 -249 -804 -35 -123 -69 -228
-74 -233 -7 -7 -43 -2 -109 15 -199 52 -545 112 -714 124 l-92 6 7 -59 c4 -32
16 -113 27 -179 89 -543 204 -928 301 -1010 26 -22 27 -24 8 -30 -34 -11 -40
-37 -31 -116 11 -81 34 -116 70 -104 35 11 42 36 31 120 -5 43 -15 83 -20 90
-8 10 -1 15 32 20 175 29 283 210 483 810 48 143 90 264 95 268 4 5 11 4 14
-2 11 -16 52 -13 71 5 10 11 15 29 13 53 -2 30 -8 37 -33 45 -16 6 -31 11 -32
11 -1 0 9 37 23 80 13 44 47 166 75 270 65 246 86 319 176 620 214 719 249
817 481 1360 198 463 251 618 259 750 4 72 2 84 -19 115 -26 39 -98 80 -138
80 -14 -1 -42 -7 -62 -14z"/>
<path d="M7095 10614 c-44 -23 -66 -45 -81 -81 -44 -104 13 -296 260 -873 l45
-105 53 3 c62 3 611 73 617 78 10 9 -221 394 -321 538 -249 357 -445 507 -573
440z"/>
<path d="M6335 10407 c-73 -55 -88 -82 -60 -111 26 -26 53 -19 121 29 76 55
91 78 73 111 -20 38 -55 30 -134 -29z"/>
<path d="M6340 10218 c-71 -27 -80 -35 -80 -69 0 -47 36 -57 106 -30 31 11 66
21 78 21 36 0 62 35 50 68 -8 23 -15 27 -54 29 -27 2 -68 -6 -100 -19z"/>
<path d="M5875 10173 c-72 -30 -95 -49 -95 -78 0 -53 36 -57 143 -14 88 36
107 57 82 95 -20 31 -51 30 -130 -3z"/>
<path d="M11396 7781 c-43 -70 -46 -107 -12 -123 35 -15 51 -6 91 56 51 79 45
126 -16 126 -23 0 -34 -10 -63 -59z"/>
<path d="M2781 7807 c-50 -34 -161 -168 -161 -194 0 -27 42 -58 63 -46 8 4 54
49 101 100 91 96 106 132 67 153 -27 14 -32 13 -70 -13z"/>
<path d="M2402 7488 c-61 -71 -74 -102 -50 -126 28 -28 65 -14 116 46 64 74
76 97 63 121 -10 19 -32 31 -55 31 -7 0 -40 -32 -74 -72z"/>
<path d="M8605 7509 c-185 -11 -500 -45 -560 -60 -43 -11 -47 -14 -42 -38 3
-14 8 -33 12 -42 5 -12 -2 -18 -24 -22 -34 -7 -48 -38 -37 -82 8 -30 50 -44
78 -26 11 7 21 11 23 9 1 -2 21 -59 43 -128 231 -712 340 -910 522 -952 34 -8
47 -15 41 -22 -12 -15 -32 -161 -25 -181 11 -28 43 -38 69 -21 23 15 28 30 40
119 7 53 -12 97 -41 97 -10 0 -3 11 19 33 65 61 131 231 197 502 57 235 140
705 140 796 l0 29 -157 -1 c-87 -1 -221 -6 -298 -10z"/>
<path d="M2478 7269 c-50 -25 -58 -33 -58 -57 0 -59 40 -66 125 -25 63 31 79
61 50 93 -24 27 -49 24 -117 -11z"/>
<path d="M2120 7201 c-31 -26 -34 -31 -25 -57 14 -40 61 -45 98 -10 33 30 35
60 5 80 -31 22 -39 20 -78 -13z"/>
<path d="M10320 6380 c-27 -27 -26 -34 14 -117 40 -83 65 -102 102 -78 13 8
24 22 24 31 0 29 -68 162 -88 173 -27 15 -29 14 -52 -9z"/>
<path d="M8886 6359 c-10 -6 -34 -45 -53 -87 -38 -81 -36 -114 6 -125 31 -8
59 19 91 90 36 79 37 97 8 117 -26 19 -27 19 -52 5z"/>
<path d="M9970 6009 c-40 -19 -51 -20 -106 -10 -92 16 -115 14 -182 -20 -84
-41 -90 -56 -57 -124 35 -72 97 -125 179 -154 60 -21 71 -22 112 -11 28 8 62
29 93 59 42 39 51 54 61 105 15 74 8 145 -16 163 -23 17 -31 16 -84 -8z m91
-26 c12 -33 3 -123 -17 -171 -17 -42 -64 -62 -144 -62 -97 0 -174 48 -228 143
-12 21 -22 42 -22 47 0 5 19 19 43 31 45 24 96 27 188 14 43 -6 62 -4 85 8 47
26 83 22 95 -10z"/>
<path d="M7966 5385 c-39 -42 -60 -125 -60 -240 -1 -95 1 -104 38 -188 72
-159 136 -205 298 -215 83 -4 91 -3 151 26 69 34 179 128 202 173 37 70 3 126
-93 156 -63 20 -104 56 -169 151 -60 87 -158 140 -294 158 -43 6 -50 4 -73
-21z m238 -55 c55 -28 93 -66 149 -150 45 -67 60 -78 150 -111 71 -25 95 -56
78 -97 -17 -41 -106 -125 -175 -166 -90 -54 -131 -48 -242 34 -94 70 -154 192
-154 311 0 51 28 192 44 217 8 13 88 -8 150 -38z"/>
<path d="M9450 5179 c-60 -35 -68 -54 -79 -190 -14 -187 -22 -211 -85 -252
-62 -41 -222 -210 -253 -269 -15 -26 -23 -58 -23 -89 0 -45 3 -50 58 -98 31
-28 80 -63 107 -77 65 -34 92 -30 220 36 53 28 123 61 155 75 32 13 128 58
213 99 177 86 199 106 199 186 0 61 -52 163 -132 257 -106 125 -149 185 -166
231 -22 59 -40 81 -81 98 -45 20 -92 17 -133 -7z m140 -23 c17 -7 32 -31 49
-74 18 -46 52 -96 123 -180 54 -64 114 -149 135 -189 l38 -72 -25 -26 c-32
-35 -55 -46 -176 -88 -56 -19 -187 -78 -292 -131 -105 -53 -196 -96 -202 -96
-41 0 -180 125 -180 161 0 26 204 233 273 277 34 22 70 48 80 59 34 39 58 130
64 251 3 65 11 120 17 124 12 8 61 0 96 -16z"/>
</g>
</svg>
